<?xml version="1.0" encoding="UTF-8"?>
<svg id="Camada_1" data-name="Camada 1" xmlns="http://www.w3.org/2000/svg" viewBox="0 0 161.51 135.46">
  <defs>
    <style>
      .cls-1 {
        fill: #297eff;
      }
    </style>
  </defs>
  <path class="cls-1" d="M143.27,0h-27.36v1.42c2.7,1.24,5,3.22,6.61,5.7,1.6,2.45,2.52,5.37,2.52,8.51v101.48l-5.19-7.41-18.06-25.8-.24-.35c-2.49-3.46-6.41-5.33-10.4-5.38l.02-.03h-20.7c-3.92,0-7.8,1.77-10.34,5.09h0c-.1.13-.2.26-.28.38-.14.19-.27.39-.39.59l-.03.04-13.96,19.94-.28.4-3.5,4.99v10.24c0,5.75,4.67,10.42,10.42,10.42,1,0,1.96-.14,2.87-.41l.09-.13,7.43-10.61,10.63-15.18,7.61-10.86,7.61,10.87,3.56,5.08,14.24,20.34.03.04c.12.2.25.4.39.59.09.13.18.25.28.37h0c2.54,3.33,6.41,5.11,10.34,5.11h26.08c10.08,0,18.24-8.16,18.24-18.24V18.24C161.51,8.16,153.36,0,143.27,0Z"/>
  <path class="cls-1" d="M38.99,128.34c-1.6-2.45-2.52-5.37-2.52-8.51V18.37l5.18,7.4,18.06,25.8.24.35c2.49,3.46,6.41,5.33,10.4,5.37l-.02.03h20.7c3.92,0,7.8-1.77,10.34-5.09h0c.1-.13.2-.25.28-.38.14-.19.27-.39.39-.59l.03-.04,13.96-19.94.28-.4,3.5-4.99v-10.24c0-5.75-4.67-10.42-10.42-10.42-1,0-1.96.14-2.87.41l-.09.13-7.43,10.61-10.63,15.18-7.61,10.86-7.61-10.87-3.56-5.08-14.24-20.34-.03-.04c-.12-.2-.25-.4-.39-.59-.09-.13-.18-.25-.28-.37h0C52.11,1.77,48.23,0,44.31,0h-7.84S18.24,0,18.24,0C8.15,0,0,8.16,0,18.24v98.99C0,127.31,8.15,135.46,18.24,135.46h27.36v-1.42c-2.7-1.24-5-3.22-6.61-5.7Z"/>
</svg>